<svg width="16" height="16" viewBox="0 0 16 16" fill="none" xmlns="http://www.w3.org/2000/svg">
<path d="M14.4 8C14.4 4.46538 11.5346 1.6 8 1.6C4.46538 1.6 1.6 4.46538 1.6 8C1.6 11.5346 4.46538 14.4 8 14.4C11.5346 14.4 14.4 11.5346 14.4 8ZM8.23438 5.03438C8.54679 4.72196 9.05321 4.72196 9.36563 5.03438C9.67805 5.34679 9.67805 5.85321 9.36563 6.16563L7.53125 8L9.36563 9.83438C9.67805 10.1468 9.67805 10.6532 9.36563 10.9656C9.05321 11.278 8.54679 11.278 8.23438 10.9656L5.83437 8.56563C5.52196 8.25321 5.52196 7.74679 5.83437 7.43438L8.23438 5.03438ZM16 8C16 12.4183 12.4183 16 8 16C3.58172 16 0 12.4183 0 8C0 3.58172 3.58172 0 8 0C12.4183 0 16 3.58172 16 8Z" fill="white"/>
</svg>
