<svg width="20" height="20" viewBox="0 0 20 20" fill="none" xmlns="http://www.w3.org/2000/svg">
<path d="M18 10C18 5.58172 14.4183 2 10 2C5.58172 2 2 5.58172 2 10C2 14.4183 5.58172 18 10 18C14.4183 18 18 14.4183 18 10ZM10.293 6.29297C10.6835 5.90244 11.3165 5.90244 11.707 6.29297L14.707 9.29297C15.0976 9.68349 15.0976 10.3165 14.707 10.707L11.707 13.707C11.3165 14.0976 10.6835 14.0976 10.293 13.707C9.90244 13.3165 9.90244 12.6835 10.293 12.293L11.5859 11H6C5.44772 11 5 10.5523 5 10C5 9.44771 5.44772 9 6 9H11.5859L10.293 7.70703C9.90244 7.31651 9.90244 6.68349 10.293 6.29297ZM20 10C20 15.5228 15.5228 20 10 20C4.47715 20 0 15.5228 0 10C0 4.47715 4.47715 0 10 0C15.5228 0 20 4.47715 20 10Z" fill="white"/>
</svg>
