<svg width="15" height="15" viewBox="0 0 15 15" fill="none" xmlns="http://www.w3.org/2000/svg">
<path d="M13.1292 0.0517338C13.3405 0.00735111 13.6153 -0.0321358 13.8998 0.0391494L14.0227 0.0769026L14.1744 0.142786C14.4703 0.289764 14.7105 0.529217 14.8577 0.825304L14.9228 0.977797L14.9606 1.09994C15.0319 1.38453 14.9931 1.65936 14.9487 1.87055C14.8963 2.12006 14.801 2.4259 14.6963 2.76626H14.6956L14.6963 2.767L11.5954 12.8449C11.4609 13.282 11.3454 13.6591 11.2304 13.9419C11.1259 14.199 10.9571 14.5565 10.616 14.7696C10.2011 15.0288 9.68549 15.0726 9.23175 14.8843C8.86049 14.7302 8.63553 14.4057 8.49002 14.1692C8.32983 13.9089 8.15363 13.5556 7.9489 13.1462L5.98501 9.21836C5.9494 9.14714 5.93138 9.11163 5.91764 9.08659C5.91709 9.08558 5.91591 9.08451 5.91542 9.08363C5.89152 9.07058 5.85783 9.05372 5.79032 9.01997L1.85366 7.05088C1.44426 6.84618 1.09084 6.67057 0.830631 6.51049C0.594161 6.36501 0.269653 6.13941 0.115547 5.76801C-0.0722257 5.31513 -0.0291572 4.79988 0.230286 4.38447C0.443281 4.04357 0.79996 3.87398 1.05715 3.76931C1.34015 3.65415 1.71816 3.53899 2.15568 3.40437L12.2327 0.303422C12.5735 0.198565 12.8795 0.104183 13.1292 0.0517338ZM13.4408 1.53521C13.2754 1.56997 13.0478 1.63917 12.6784 1.75285L2.60131 4.85379C2.13543 4.99714 1.83479 5.08969 1.62862 5.17358C1.61261 5.1801 1.5983 5.18703 1.58495 5.19283C1.59722 5.20078 1.61012 5.21038 1.62492 5.21948C1.81452 5.33611 2.09577 5.47748 2.53173 5.69547L6.33218 7.59571L9.67812 4.24974C9.97416 3.95406 10.4541 3.95387 10.75 4.24974C11.046 4.54577 11.046 5.02635 10.75 5.32238L7.40407 8.66686L9.30504 12.4681C9.52301 12.904 9.66432 13.1853 9.78102 13.3749C9.78972 13.389 9.79854 13.4016 9.80619 13.4134C9.81186 13.4003 9.81982 13.3868 9.82617 13.3712C9.91001 13.1651 10.0027 12.8648 10.146 12.3992L13.2469 2.32137L13.2484 2.31693C13.3613 1.94975 13.4299 1.72377 13.4645 1.5589C13.4666 1.54904 13.4666 1.53936 13.4682 1.53077C13.4598 1.53239 13.4505 1.53318 13.4408 1.53521Z" fill="#8190FE" fill-opacity="0.2"/>
</svg>
