<svg width="512" height="512" viewBox="0 0 512 512" fill="none" xmlns="http://www.w3.org/2000/svg">
  <title>Bonfire Admin favicon</title>
  <desc>Split icon with red bonfire on the left and dark gear on the right</desc>

  <!-- Background -->
  <rect width="512" height="512" rx="96" fill="#111418"/>

  <!-- Split line -->
  <rect x="252" y="72" width="8" height="368" rx="4" fill="#F2F2F2"/>

  <!-- Left: bonfire -->
  <g transform="translate(38 54)">
    <!-- Outer flame -->
    <path
      d="M152 270C100 240 88 188 116 137C130 112 152 95 166 64C196 94 212 124 199 164C227 139 232 97 216 54C279 104 306 178 272 237C249 277 207 296 152 270Z"
      fill="#E10600"
    />

    <!-- Middle flame -->
    <path
      d="M169 270C136 249 129 214 150 176C161 156 181 139 188 105C218 141 229 180 207 213C231 204 242 184 243 160C274 204 263 250 229 274C210 287 188 285 169 270Z"
      fill="#B80000"
    />

    <!-- Inner flame -->
    <path
      d="M181 267C160 251 157 228 171 205C180 191 193 180 197 158C221 190 226 227 207 252C200 262 192 267 181 267Z"
      fill="#FF2A1A"
    />

    <!-- Logs -->
    <rect x="88" y="312" width="158" height="28" rx="14" transform="rotate(-18 88 312)" fill="#8B120E"/>
    <rect x="92" y="330" width="158" height="28" rx="14" transform="rotate(18 92 330)" fill="#B01810"/>
    <circle cx="95" cy="326" r="14" fill="#6E0D0B"/>
  </g>

  <!-- Right: half gear -->
  <g transform="translate(256 124)">
    <path
      fill-rule="evenodd"
      clip-rule="evenodd"
      d="M0 38C0 27 9 18 20 18H46L51 53C63 57 75 64 85 72L118 58C126 55 135 57 141 63L164 86C172 94 172 106 164 114L139 143C143 155 145 168 145 181L176 202C185 208 188 220 183 230L169 259C164 269 153 273 143 269L107 257C97 266 86 273 73 278L67 315C65 326 56 334 45 334H20C9 334 0 325 0 314V239H29C62 239 89 212 89 179C89 146 62 119 29 119H0V38ZM0 151V207H29C44 207 57 194 57 179C57 164 44 151 29 151H0Z"
      fill="#26313A"
    />
  </g>
</svg>
